<svg width="32" height="32" viewBox="0 0 32 32" fill="none" xmlns="http://www.w3.org/2000/svg">
<path fill-rule="evenodd" clip-rule="evenodd" d="M15.29 18.64C15.0913 18.4549 14.9879 18.1892 15.0093 17.9184C15.0307 17.6477 15.1746 17.4015 15.4 17.25C15.5894 17.0719 15.8453 16.9823 16.1044 17.0032C16.3636 17.0242 16.6017 17.1538 16.76 17.36C17.1057 17.7767 17.0569 18.3928 16.65 18.75C16.4606 18.9281 16.2048 19.0177 15.9456 18.9968C15.6865 18.9758 15.4483 18.8462 15.29 18.64V18.64ZM20.8208 7.17181C24.9968 9.07787 27.9266 13.211 28 18.09C28 24.7174 22.6274 30.09 16 30.09C9.37258 30.09 4 24.7174 4 18.09C3.93263 13.2778 6.81646 8.91433 11.27 7.09C11.76 6.97 12.12 6.97 12.36 7.58C12.5879 8.07723 12.3741 8.66532 11.88 8.9C7.32693 10.9228 4.95737 15.9886 6.32309 20.7799C7.68881 25.5713 12.3732 28.6264 17.3085 27.9446C22.2438 27.2629 25.9244 23.0522 25.94 18.07C25.9567 13.9705 23.7067 10.4633 20.0368 8.9C19.7973 8.82543 19.6037 8.64774 19.5088 8.41553C19.414 8.18332 19.4279 7.92088 19.5468 7.7C19.6238 7.45993 19.8034 7.26644 20.0371 7.17181C20.2708 7.07718 20.5985 7.05298 20.8208 7.17181ZM9.99996 17.77C9.97894 14.7954 12.08 12.2279 15 11.66V3.11C15.0378 2.55382 15.4507 2.09547 16 2H20.41C20.9387 2.03178 21.3509 2.47032 21.35 3C21.328 3.52032 20.9279 3.94591 20.41 4H17V11.68C19.9606 12.1788 22.0967 14.7892 22 17.79C22.0338 21.1521 19.3612 23.9182 16 24C12.6308 23.9181 9.95513 21.1399 9.99996 17.77ZM20 17.89C20.0174 15.6473 18.2417 13.8005 16 13.73C13.8914 13.9622 12.2953 15.7437 12.2953 17.865C12.2953 19.9863 13.8914 21.7678 16 22C18.2222 21.93 19.9903 20.1134 20 17.89Z" fill="#fff"/>
</svg>
